<mxfile host="app.diagrams.net" agent="Mozilla/5.0 (X11; Linux x86_64) AppleWebKit/537.36 (KHTML, like Gecko) Chrome/121.0.0.0 Safari/537.36" version="24.7.6">
  <diagram name="PÃ¡gina-1" id="sMBQKqzN3epdwsTfhfmU">
    <mxGraphModel dx="1247" dy="685" grid="1" gridSize="10" guides="1" tooltips="1" connect="1" arrows="1" fold="1" page="1" pageScale="1" pageWidth="827" pageHeight="1169" math="0" shadow="0">
      <root>
        <mxCell id="0" />
        <mxCell id="1" parent="0" />
        <mxCell id="w3wkXEV-EzW7wYtHoRg3-5" value="Presentation Layer" style="swimlane;whiteSpace=wrap;html=1;fillColor=#dae8fc;strokeColor=#6c8ebf;" vertex="1" parent="1">
          <mxGeometry x="80" y="120" width="160" height="120" as="geometry" />
        </mxCell>
        <mxCell id="w3wkXEV-EzW7wYtHoRg3-9" value="Frontend" style="rounded=0;whiteSpace=wrap;html=1;fillColor=#dae8fc;strokeColor=#6c8ebf;" vertex="1" parent="w3wkXEV-EzW7wYtHoRg3-5">
          <mxGeometry x="20" y="40" width="120" height="60" as="geometry" />
        </mxCell>
        <mxCell id="w3wkXEV-EzW7wYtHoRg3-7" value="Application Layer" style="swimlane;whiteSpace=wrap;html=1;fillColor=#d5e8d4;strokeColor=#82b366;" vertex="1" parent="1">
          <mxGeometry x="400" y="120" width="440" height="120" as="geometry" />
        </mxCell>
        <mxCell id="w3wkXEV-EzW7wYtHoRg3-39" style="edgeStyle=orthogonalEdgeStyle;rounded=0;orthogonalLoop=1;jettySize=auto;html=1;" edge="1" parent="w3wkXEV-EzW7wYtHoRg3-7" source="w3wkXEV-EzW7wYtHoRg3-10" target="w3wkXEV-EzW7wYtHoRg3-11">
          <mxGeometry relative="1" as="geometry" />
        </mxCell>
        <mxCell id="w3wkXEV-EzW7wYtHoRg3-40" style="edgeStyle=orthogonalEdgeStyle;rounded=0;orthogonalLoop=1;jettySize=auto;html=1;" edge="1" parent="w3wkXEV-EzW7wYtHoRg3-7" source="w3wkXEV-EzW7wYtHoRg3-10" target="w3wkXEV-EzW7wYtHoRg3-8">
          <mxGeometry relative="1" as="geometry" />
        </mxCell>
        <mxCell id="w3wkXEV-EzW7wYtHoRg3-10" value="Service" style="rounded=0;whiteSpace=wrap;html=1;fillColor=#d5e8d4;strokeColor=#82b366;" vertex="1" parent="w3wkXEV-EzW7wYtHoRg3-7">
          <mxGeometry x="160" y="40" width="120" height="60" as="geometry" />
        </mxCell>
        <mxCell id="w3wkXEV-EzW7wYtHoRg3-42" style="edgeStyle=orthogonalEdgeStyle;rounded=0;orthogonalLoop=1;jettySize=auto;html=1;" edge="1" parent="w3wkXEV-EzW7wYtHoRg3-7" source="w3wkXEV-EzW7wYtHoRg3-11" target="w3wkXEV-EzW7wYtHoRg3-10">
          <mxGeometry relative="1" as="geometry" />
        </mxCell>
        <mxCell id="w3wkXEV-EzW7wYtHoRg3-11" value="Repository" style="rounded=0;whiteSpace=wrap;html=1;fillColor=#d5e8d4;strokeColor=#82b366;" vertex="1" parent="w3wkXEV-EzW7wYtHoRg3-7">
          <mxGeometry x="300" y="40" width="120" height="60" as="geometry" />
        </mxCell>
        <mxCell id="w3wkXEV-EzW7wYtHoRg3-38" style="edgeStyle=orthogonalEdgeStyle;rounded=0;orthogonalLoop=1;jettySize=auto;html=1;" edge="1" parent="w3wkXEV-EzW7wYtHoRg3-7" source="w3wkXEV-EzW7wYtHoRg3-8" target="w3wkXEV-EzW7wYtHoRg3-10">
          <mxGeometry relative="1" as="geometry" />
        </mxCell>
        <mxCell id="w3wkXEV-EzW7wYtHoRg3-8" value="Controller" style="rounded=0;whiteSpace=wrap;html=1;fillColor=#d5e8d4;strokeColor=#82b366;" vertex="1" parent="w3wkXEV-EzW7wYtHoRg3-7">
          <mxGeometry x="20" y="40" width="120" height="60" as="geometry" />
        </mxCell>
        <mxCell id="w3wkXEV-EzW7wYtHoRg3-12" value="Data Layer" style="swimlane;whiteSpace=wrap;html=1;fillColor=#f8cecc;strokeColor=#b85450;" vertex="1" parent="1">
          <mxGeometry x="1000" y="120" width="160" height="130" as="geometry" />
        </mxCell>
        <mxCell id="w3wkXEV-EzW7wYtHoRg3-14" value="Database" style="rounded=0;whiteSpace=wrap;html=1;fillColor=#f8cecc;strokeColor=#b85450;" vertex="1" parent="w3wkXEV-EzW7wYtHoRg3-12">
          <mxGeometry x="20" y="40" width="120" height="60" as="geometry" />
        </mxCell>
        <mxCell id="w3wkXEV-EzW7wYtHoRg3-55" value="" style="shape=datastore;whiteSpace=wrap;html=1;" vertex="1" parent="w3wkXEV-EzW7wYtHoRg3-12">
          <mxGeometry x="120" y="80" width="30" height="30" as="geometry" />
        </mxCell>
        <mxCell id="w3wkXEV-EzW7wYtHoRg3-44" style="edgeStyle=orthogonalEdgeStyle;rounded=0;orthogonalLoop=1;jettySize=auto;html=1;" edge="1" parent="1" source="w3wkXEV-EzW7wYtHoRg3-13" target="w3wkXEV-EzW7wYtHoRg3-11">
          <mxGeometry relative="1" as="geometry" />
        </mxCell>
        <mxCell id="w3wkXEV-EzW7wYtHoRg3-45" style="edgeStyle=orthogonalEdgeStyle;rounded=0;orthogonalLoop=1;jettySize=auto;html=1;" edge="1" parent="1" source="w3wkXEV-EzW7wYtHoRg3-13" target="w3wkXEV-EzW7wYtHoRg3-14">
          <mxGeometry relative="1" as="geometry" />
        </mxCell>
        <mxCell id="w3wkXEV-EzW7wYtHoRg3-13" value="Database connection&lt;div&gt;&#39;engine&#39;&lt;/div&gt;" style="rounded=0;whiteSpace=wrap;html=1;fillColor=#f5f5f5;strokeColor=#666666;fontColor=#333333;" vertex="1" parent="1">
          <mxGeometry x="860" y="160" width="120" height="60" as="geometry" />
        </mxCell>
        <mxCell id="w3wkXEV-EzW7wYtHoRg3-37" style="edgeStyle=orthogonalEdgeStyle;rounded=0;orthogonalLoop=1;jettySize=auto;html=1;" edge="1" parent="1" source="w3wkXEV-EzW7wYtHoRg3-6" target="w3wkXEV-EzW7wYtHoRg3-8">
          <mxGeometry relative="1" as="geometry" />
        </mxCell>
        <mxCell id="w3wkXEV-EzW7wYtHoRg3-47" style="edgeStyle=orthogonalEdgeStyle;rounded=0;orthogonalLoop=1;jettySize=auto;html=1;entryX=1;entryY=0.5;entryDx=0;entryDy=0;" edge="1" parent="1" source="w3wkXEV-EzW7wYtHoRg3-6" target="w3wkXEV-EzW7wYtHoRg3-9">
          <mxGeometry relative="1" as="geometry" />
        </mxCell>
        <mxCell id="w3wkXEV-EzW7wYtHoRg3-6" value="REST API&lt;div&gt;Endpoints&lt;/div&gt;" style="rounded=0;whiteSpace=wrap;html=1;fillColor=#f5f5f5;strokeColor=#666666;fontColor=#333333;" vertex="1" parent="1">
          <mxGeometry x="260" y="160" width="120" height="60" as="geometry" />
        </mxCell>
        <mxCell id="w3wkXEV-EzW7wYtHoRg3-36" style="edgeStyle=orthogonalEdgeStyle;rounded=0;orthogonalLoop=1;jettySize=auto;html=1;entryX=0;entryY=0.5;entryDx=0;entryDy=0;" edge="1" parent="1" source="w3wkXEV-EzW7wYtHoRg3-9" target="w3wkXEV-EzW7wYtHoRg3-6">
          <mxGeometry relative="1" as="geometry" />
        </mxCell>
        <mxCell id="w3wkXEV-EzW7wYtHoRg3-43" style="edgeStyle=orthogonalEdgeStyle;rounded=0;orthogonalLoop=1;jettySize=auto;html=1;entryX=0;entryY=0.5;entryDx=0;entryDy=0;" edge="1" parent="1" source="w3wkXEV-EzW7wYtHoRg3-11" target="w3wkXEV-EzW7wYtHoRg3-13">
          <mxGeometry relative="1" as="geometry" />
        </mxCell>
        <mxCell id="w3wkXEV-EzW7wYtHoRg3-46" style="edgeStyle=orthogonalEdgeStyle;rounded=0;orthogonalLoop=1;jettySize=auto;html=1;entryX=1;entryY=0.5;entryDx=0;entryDy=0;" edge="1" parent="1" source="w3wkXEV-EzW7wYtHoRg3-14" target="w3wkXEV-EzW7wYtHoRg3-13">
          <mxGeometry relative="1" as="geometry" />
        </mxCell>
        <mxCell id="w3wkXEV-EzW7wYtHoRg3-48" style="edgeStyle=orthogonalEdgeStyle;rounded=0;orthogonalLoop=1;jettySize=auto;html=1;entryX=1;entryY=0.5;entryDx=0;entryDy=0;" edge="1" parent="1" source="w3wkXEV-EzW7wYtHoRg3-8" target="w3wkXEV-EzW7wYtHoRg3-6">
          <mxGeometry relative="1" as="geometry" />
        </mxCell>
        <mxCell id="w3wkXEV-EzW7wYtHoRg3-54" value="" style="group" vertex="1" connectable="0" parent="1">
          <mxGeometry x="120" y="20" width="80" height="80" as="geometry" />
        </mxCell>
        <mxCell id="w3wkXEV-EzW7wYtHoRg3-53" value="" style="ellipse;whiteSpace=wrap;html=1;aspect=fixed;" vertex="1" parent="w3wkXEV-EzW7wYtHoRg3-54">
          <mxGeometry width="80" height="80" as="geometry" />
        </mxCell>
        <mxCell id="w3wkXEV-EzW7wYtHoRg3-50" value="User" style="shape=umlActor;verticalLabelPosition=bottom;verticalAlign=top;html=1;outlineConnect=0;" vertex="1" parent="w3wkXEV-EzW7wYtHoRg3-54">
          <mxGeometry x="32.5" y="15" width="15" height="30" as="geometry" />
        </mxCell>
        <mxCell id="w3wkXEV-EzW7wYtHoRg3-57" value="" style="ellipse;whiteSpace=wrap;html=1;aspect=fixed;" vertex="1" parent="1">
          <mxGeometry x="1040" y="20" width="80" height="80" as="geometry" />
        </mxCell>
        <mxCell id="w3wkXEV-EzW7wYtHoRg3-58" value="" style="shape=image;html=1;verticalAlign=top;verticalLabelPosition=bottom;labelBackgroundColor=#ffffff;imageAspect=0;aspect=fixed;image=https://cdn4.iconfinder.com/data/icons/48-bubbles/48/12.File-128.png" vertex="1" parent="1">
          <mxGeometry x="1066" y="35" width="28" height="28" as="geometry" />
        </mxCell>
        <mxCell id="w3wkXEV-EzW7wYtHoRg3-59" value="Data" style="text;html=1;align=center;verticalAlign=middle;whiteSpace=wrap;rounded=0;" vertex="1" parent="1">
          <mxGeometry x="1050" y="63" width="60" height="30" as="geometry" />
        </mxCell>
        <mxCell id="w3wkXEV-EzW7wYtHoRg3-60" value="" style="shape=image;verticalLabelPosition=bottom;labelBackgroundColor=default;verticalAlign=top;aspect=fixed;imageAspect=0;image=data:image/png,iVBORw0KGgoAAAANSUhEUgAAASwAAACoCAMAAABt9SM9AAACWFBMVEX///9ssz2GAAAAbST//v////0AMIVeWgB4AXn+//z9//9+AABPh1qKMIvW3OSFAALk2thYUgAAFX/K2M2hnn0AahwAAAAAYwCaU1S6uZs0S4qJAAB6AADj1OJVTgABLobEl5OUODp6AHxpAGl0tkhjri729fNCnQDIpaK83K7s9OLZxMHr6+vX5c3i4uLJycl/f3+8vLy70sXh6uOVlZXWu9O11qFVnyZ3d3dJSUnr4evRz7nOzs6qqqo7ngBJnAC9w9YAAGpYWFgAWABsAABpaWmLvW4AGHmBhJyIlbgAKoiIiIg8PDxRUVEARwCLLSskJCRaqCB5s03O47+fx4iRwXfk8t90slmlZGGWRkYbGxuHr49XAAAAUPm0tKhFRABnpURfpTqOv2MylQCizIeYyX3X6MW716C50Kiv2JDF5b94tUV7r2aLwmKSwXOn0JQACIEdP4pndqhGZI9itCZCUotkdZyPnLEAEnB3jbG4w9AAAElga40vN2dSWplIUXoAAF8AAEGpr8sqOmB/e5tPWmqibWqdo7AIJGBvcH84PmAAHXEAHmk1SJG51PIFaPlMhO6KJSphk+2DreshbfE5fPOPIB+nxqoWWiSEo486gExel2t2jnyivKk6YT5oimwRUiMAMAAwVjigTleQdXN4Kyl1S0mmi4StyutmMDCSuO2QY10AU+ucufwAPu+RS5ilb6S4kLhZBlXBm8V8MHlSKVGLWoZgRmRaNVd0PHMfABiacZuXhpxBAD2DZH9nKmefV2ttbDGIhFhaWTYwMQBPSiWMh3EfGwBFAvJjAAAgAElEQVR4nO2dC2MTR5aoS6YKXK1gm4cViI0N2Oq22i3JioRksKQmBsuJbR56WDIhsS3bCC8MKJNMHpOZbGbZO7B7uZMHyYRMEjJz75DNbCZzh7Asu2wYcnkM+7fuOdWyLdmthx8Y7PFJLHVXV78+nTp1zqnqhpBywihljDPGytZcE0Iolxgna7AqEYlTwiXOH/d1PCnCJMYoqBCVplvblB4xJhF1MOUgEpspxGJRMfcpGYVUomxmW66MGkejcIBVoZtAihLV6UwyyvGOwEJNb+NAwh9WdM6pWMvdMROSg0VVITJsx0oSoVP7S5xISJJxELYqlJMymmxVFF2PqHizwAp0zLhH3EpOjeujVLRDycDIAAFUMLZCadSQ0YwoYjOwwdiJZSkRiGaotBpUi1E1oOhKWA+nBS3gYDQv0e6AUtLBOcKjeTtxMmPzo7g3iJI0OTq2bzamKHGyKjSLkEklfDrp1JXxOHEmEk418aOEE5rTZDbhTSaSyQm/g6iJrF/1DybiomfMJH6UVeOJhEEnqkQn4/FRXZ8AZZSzkQjsDZ2CpPojYyec0Hgn04oSyZqhXIGSDeuDhDhPxZ3Er4Qtehg0ZZKQViV8Qg87nWG9laiKEh0NK0o4AZYpMQ4LUYsy7hS7AyyV4J4ThMZ1BbaNT3DKMqitSvgsldK6HtUV52pohoScCuv6YIajcfbrIGm4NSVDYkpUUcYzTkWPERVvN5WGm3eSOLCypxU9quRg6UpGzcQUPUOhrpK2QK2TsIeiBwATIIxAQ02nnauhHVKJ/wh1Jp1VGcBSonGuxhQlQWJwuwm/moOlKKcITylKlqR0JSLzOHCZhqXD5ugpQgYVPcI5HCQARwqnVOYAYiqJKOE456tBsxin3BHTgVdahsakTIApBkAp0CwFGiPJwdIDcLenECKQcVKJALgpWDr2EFHAlNbDSYJf4xyOiIYvjUgjq8bAU+E5qv6ADlrjR9Xh1BsGQClsizwHSxGw4ggLlQVcqMgMLCXJeRY2ISUVXBHQPdUCm6ErTWHDjehhgCU93vtcEpFYfCIbBzOvhAcRVgpchr+D7suAxebCAnPlgJAxMNMMdRVcU2jIuMspwpJg9/gY1hKWKwmwoCpdDbAYmRwPBzKqsEd+MD9nTmX1aNiBzdAU1gT0B35HLDxj4PW40zmmQ8vF3U/GRxE1VIVaoGOthJwFK+fwrgpYjMPdQUyjgClGA6/o4YAyygEWtCBOM0oYbVY4Cj64gKUGwCWA9elmqKC/AEV+qqawq1CUQJLy3CL0kSyO9Z2P+T6XRCDEVSMBuKtYkiOsCejSlBQ48+gMQISdQZWB5pQGCx3X9QShSewns2dzsCSw7sLhcECsqCaAYTQFrKiawIOm0OBLYBD1zKrQLMzCqMkkoELXIZwlSSfYIM6gDDpKKsMmAiuqWFZVjImxxpSBp1API2nYXZLEkcAFgQjcWIRYmkFUCLvLtNyVrAThkkgXYIYG/fAE8pMgXBEZG/yiIs8AZUQ4rpPp0SyYbtAbEcFM+U+wC0U3xEjdQKmEcSYHUpThQaRV4Tvki3AdWGkdSI7rSuwMsIqtDt9pwZINg2aVgUX+bjyMLrueXBVZl4VLPBabJLS0wkjUOWgJWBIq/dvONosUHyOlFWaKJZ1PtIdGb+HXhbtDvyLNqDzaVFPFZriJGrfADTMqGQlbE8EsJyY7F3Flj0IWmVdmDKIoOv3zAAGRrDahJfolRow0OOWqSJYXGwAQ6W6pGMrHJ1IZfS0n0JtKPGdNqQg0sZOdWw/6Yz7Vv/NkKp0FxowU0R0cFaXk0edD5qm6Xie4ZgsXaFk8kU47p86tZuB41ExhmDyajsm5PHgCggnOwTuUzQ8LbRZ9wUVpFkenCC6Ey8UEfj1C56O+WZF8FR4cF6NuYsQHDBmO4RprxgI0GzA50DTA2nB0/bClMBxeioQNLxj0hiT0sIjmgRdcKw7mod6hWkkcwgvYgaKznRkfjzAITTHpATYTzw6KJ+Fp4DrwNuMKxCRotrhxLKHA4hRisErUKX1nEuIizoilqNgtsQmVzMNm52DlLJfRSojoJIR1oaKxwKoYjYNfQWKiDvYmUu6XH5sKRuGG0xCSxXDEEweNJAMgyf0YUT1qnAR+Fg4XSQbFjlMWzvCbjfvMZeiMSxGDo+LSMObAX0pcAC3TSNFGJiM/Kc7KAOYvd5y5sOCXj6eisfip2Gl/Jpb6EarZYCwVJyQzlg6MQeAuJVIxZzwGJc5IOpCKg4ZR5rBEx5KDU/EVhxg1CgF/EtRDTaUiPJsCApOxaHpCBUXAMYGEJZ2F8DaZSk2QCQhMW2NOyryJdDTmkFDpMmOBQASONmnR9UDKTyKxFFgJONigxCOpMdkxqnLmgCMOqqSMRsDxkrEyqJDWBPwMFSrXlGaRLPj/YaU1rCR4IKwgE0UJc5odV1DgVx4LK2cws+rQcXhNiYAypjCvoVtysKAJAbezIk3JkxC3R8JpzlsxcRLWMwQ1K4AZjxRnmbAyhqmmqAIN8RSeOIw5Ap4dhwrKeBaccDj0eILCsaE4Oa6kCFxWFOJeL4/hBYWVU+WsM+dn7OVhWeynKna2pmxWEm47ncI0dALN7xhuUU4gsUAiG0DjEhHjJHGoqJ/AxMUkcWBKJIV5IAMWkQNKWtX1NLQmVVeiYbDiCV0JRNJ6OIqwwoHIGBRPEmdYP0MSoFmpVBKHEc5m04riJ85xPRyJAaXkJBCxjE0Si6KjZiEsglkUZVyGq0tnI7rIbJaae0C5oxJWrfaYeY9UHBYGnzG8W4SFPGQ2qkNAHsEUKwFrG4FFPToZl7OK7ge10+HyY6iGyNOAlTM0qbAOqyqgTTmc0PaUDDajlAqwMEc7ATvhPnD3g6jBzIGqSJKKnmYRHGlgiVTqJIljNVYIS1daHXE1gEMteBgHKTmJiKqtFbBC1cpWmlqfgiUunCMzaHFw0Y4k4mBwsaOx0VH4xEI/wfEQPT06CiQVgmEo5dMjJIzBNicSG4QrBTWSKaZz7WibwaRjM1ShIwwD+AzoLvSGorkPigPGoK2qaV1PiuuG3hAzdJzmYCkGLPwV4LoCqdHRACIufouYipmwV6JZltMWS7JMIFkAC3rPiI5Davgzww+aAcMCTkCc8TT8mjGUiDEURElK12MxLEsRUDWV5MGCFhj1T/qhHcrYDANwz6gwRo/I0cDLlDlRS4XNwt5QwFLSsVY8ohiEoiK240KzKI4rqBJoli6aoYJ9A7RvqJ5KQbBc3EcCD0c1RXXarPBshWmarG5oVhbz84SIgUnGAmCLRQo216acGS/ijGN/j/YLS5I4fGSMfeRgTWIOGxplFGpgCpcYAyPQb/mzWRVhcRw6AMXL4JCeGLbEM2Pr5M5kksLZ4GLi2Wwc+lXhOrRiK0YzYNgsVfwiAXBrkhlnEYdWCLTPiN2sGZpqmz1TESthxuPxuJoMQ7Pzj4ajQvv9eM/Y6BxhPe0AdRt3TMECpYj6HQEl7Cd+HDH3B6YN/CgY5VZLzILcBSy4KehDLX7wxMZFMyyENQGnzCaT0FeedKTD4UEwVFHFn8DJHZIzrKQTcbAOoKx+PaxMwaKo4alTYOXHS0UeYD9NqNhPnz1h6k2crtBmASQlDCwS2MErwsBDg4d+J4q+kRQRYx5h8LdFMwTfNYGpfeEASGmcNKEEcrCS4+FRVGcVdlDBzGAzFKMo6AaAQZzWLGGzUthLgBcSxywwnFtJQ/gREQcEmmAAFBwCTOpiDEafhsWNuUVwUSdLKhY3g9IKGpQcM1Mtf4kmPSP+gCWdtgfAXiXSSuDEyUA0i/c4iEOz6NdxfzoaTWch0hm0R53ghxJ2chRL4LrBQYYlfyIQiOOZ/PaAX8TSkUAUOq3AKIbURB0MRMHbBZOfDuDcKWc0AL0huJ7w6ztS6QA0xDgeMIEDxCyLZ/NjkicJri/cArjK0UgmYI8wNhodVdEjUuH4AfSXiwsl/jxE00gm0HE2UznLabVcZhVFVrnMVZnjXaoypbCO4WcU+jWGSUSI1lQVY0MqcxkHPzDm86o48IFxIRaBRogzYWhKRdgCx5PgqKKPYVAH8zGgErIsRgxkzE7KGC5SScZjw5lV1QhtYF8vNyYuYliEmQq4KoYHxAswwl6opPLSGU51lqESgOwOOD4xDL+90HgBxwrcBwyQiYiUQWlEtgUnQcfDYFNo7mZxlIOiZnORvDNWKBVJF0mMnBgqLBlz64z0H0bFIurCrBT8cUx84XQ8nDUsOFNj2EXgZ9RoBsYBiTHTEWe+ikBQhNCYYsxNceQYevOSqjCRh8JumXA6YnaERSRKk7iUPplxWPLqtNqTFaSqOKYbMAsnUgmYLuCix4Z+jhuTe+H4+DOjUlCsJ/KcFCddihQd0mYits1dfQ4V5iuMab5cHB1zfSIlQkRQzkQ2gRkDVcQoE5W5GK4y2HP8pXKUMNvBDFeb4+l50WQUHCCTrzQW0S8ZsOAaVWMJrBcAnOkwz0qUL2DsgqH7nF6580WA8Vg+q1OYq2Gt+bCihvGL5bVFe5yY58NLCvyMkxOJU4tMoD5G4SQvKERW0F4k1VKgWXEirGieJwYh4oLUg2LOYuUOEHEey4OFnTtY9UhBM0QnAm2tM7+5+hcw+8pIW67YiUjQILJ5rFJwJ1SYpwJYFjRk4NjkdwSti8xjrzjBTimZry5J7A5yScACWBDioFLkN8SJCuPp1SLo1pzNU6xBdEN5xD4XlsWCme1881ZxiLhaBPwvZzTv9p3oQk4BmQXrLLozearVao+I0ZPHfAvUGC9cjjNxKZXXCmPozapTYeIsWBYn9GKswH11LM9VlhQcXVyuc03mjedAVwhmPG43hWW3T6CJz0zDagU/A7u25brSYlLXtkzKzQpyyfY4eKPSmDksoCNDtFGQI8QQcXkutLi0N7YvT6dMC3wBsOHgAc3QQFgkfz2DgfqZ/B0sSbOQU5JrHqHkkpgQ1OH/bY2NyzUXM1mQHW3F60hOG3wBixbAA3/1bAGsQTMDz/e/snm29PbC36yS3rxl2GPuTibS+0qNcRIMfSVtyFo1VEm2aCnEX6BYrdimnMVh+RHWifw97KdN86/7e9fPkr5XXtnc21xQtHnzzNb1P371V8+8+uPZe82V5vV9OViYY2izWmuhFS6TzZqwt+bhiiGszE8KYOU3wywmgiYKNMuSMflZ2f7e5nxZv773BZnVvHaxr7m3t6+5r7evt7f5lZr9z62HJVjt7et7lTz/Anmtrw+IYp2+ZnNBsAYssFPtR2prq2p3LdMsX0YGCzTrtNCsme5xTDwuXaBZjCUKdvmJ6WMB+zcX6kPvCyR4QSav97769jn4OPfquTf73uDam6/vf+3cW8+ce/vV3r9HWO/2/vTtc819b7750zf6iupWnwvn3BDafsTaUFtVZW0nUrHx0Lz5bJjpWiyswjtHJ53ld3cTquyYGfSxn4J9ptz7KTF9VnU2rGaX62dvPfP8628wTZVef4HIXnLuBc7dPydcfoeoGvmpAescccvaWzWMPF8CVg3cudZ2pLHKWgu0horOkJoti+wzGSkcsbc74QeQ8oYu7OBdzbRTCBwp4YUDZjHTaQ+zYa2Xg8819z23uUb72Tv83Avsl7/Qgj/Tgv/wKrnwzjn2j7/Y53pdwNJc/+Nt8mqN9st3mk1BGbDk9vONtQ1VVQ0NtQ3WT+CrvIAGti0allowiGo/hUndE8UGpmOYlk3OycVXAKuvRvvxK2/sf63G+1yz9Pbz5N1XXMHn5B2/eIO8u3k//6dXXAasn2uuN30X3q0BssVhNYd2HQRIYK3gf2yIVQ21uIgfcyVXXNvQ2LY4VijZAh/zBObKM0Vg2U/iUPyswR7V1FzMgtXc9waRa5j8Ty+QmhryS6DynBZ8roafe4P8HKwVlF34e4aatZ+/qdW85XW9VRTV+ubmfXLdeavV2lDVUAWMqqyNFYi1qnYJYKmx/JsHRwBwDZrPaGtN4oDD2EyrbBUm38zJmdMMe1/zBD3v9F18Phj85+fecL+7+e0Lva/v97wbfLfv4hvBoO+t19/+51fd7168EHT/z75zF3pLKJawWXL7MSuoDJj4bRXZq3brUsCaiQTF/TuwS06akDIcCUYKWqE9xs1fc1EIC9oU+gMXoevvu/hW3/q+zc3rL15c3wx/b6HjtPmti33r4Q+KNuP23v+F/lRRWC5GcNjMO9RoBauFwQ5nJQX6zvZG6+JhgR4VhC8xnBM7y1XNgTmLo2uzXNI4vozGDNYrcFNTgkvICT/FGvAR5eubRTH85SrnVuFjfV/zlK/Vl3cosRH9LIZjaNpQI9isD2XxgICUG0PE00vTq2IRqi4JLMpoZpZq4WBads4kEfuYijPLC817pJjr8vaPn6lAfvWrX5WpAH+vPzO7Us6Dh5Cf1B2zNgCFchNAAZZ1CWBh4qxQWVSCA4InC3XLDnolxnoLnaxi7wOpMMG0c6hslfdKTSnDQeWd1tpd5WLDJYOFM0fybr8VHSd8ZCaTb/jtFj8XT4MU5CjsCdMmSIwHPorZD0PEYPHQLhz4xSLJeNCxQPA48vsfcHwoJa9w+hVB1GhndR82upZJs8S0cH8hApwzLhHVcQZdUpTTOKsFrfussFstEcEyyVymzoqLQ8eIVDgZJ68iZoPYpfff/wgfWpqzv3EORE20XeXczaWDhZNJY7OcLWMav6Q6sokJvyPJxTwEShzpfG2zOxb3zBdBWMUF53hcevn9b1++xEsnYyW5XPJvKWFJNF7olZ/Bec15D3SJCRWMZfMG78H+n8F5PYs6cUlYEvVeulTz8UfvffSRVuog+NjSMsICLmdn+QoOYaO5sD6oVhLjyZQ9f+pWqz0z/TgIIbK4Hzp9V7TDVcGJS2uW0O+PL5V9nQ14EcsIC2gVTs9C5cowIt7VZthTlsxaZvWPg/mzckLdrqBHDtk0zaNpwSCBJZfbTV0ejbjdRc9bEhYRD+AJWIvN7S0xrMIQUVikMX/SSIJyrp4anDMP157MNySenv6B7g6fzW3rPOqx9ZD+o7BkC9o6O0MDA75i5y0LiwEstpCJTbOOs5SwCIaIltlit8TOTkwkJs7GTGYsQ1CYfwsAK+TqDu7VbL5Dnr247u4mL/oGiKunp6O/2Em3VaJZi+1FyBLbLPwzfRQFKZmnIPCRlLxDhABWsFuzeboHOtwDAOuQfHSvzTVwtCM4MFCkHUoCVqnhZFAphLXo4Yil1ixW2UNO0xTjjOarFgb2VIYvqlH4hgUsEnZfNp1+L9W11ZFt20hdm1aikTHy6w84r/QZtKICPcBSwgJL7pwHLPsZQhb3kDHl7Qc//OSTD63tpaaIM4awFj2ba4lh4dyrwXnASpZ/1rO0QE9b12i1HpGlYiGTIR98YJ4wy8negR65H7oQ19zGXhA45WCVzuRMR1llHwVnZLb7UILVRJmXtYqXEJPpdw1Pv4d45otT/LUb6qSZoHtOZXzb7ge/FtPCZ7bSgvcx2IK+vaTHR2yeoC3PdWVUTAmfuv0pm1UJKwzThG9Zhtds96G4JMv0UEw898xLiHhl7vk2Meu6VL0Pfi2eLcjfLz9ssGnyi6QTYBEykOcGU6nt2LYCOdZQu2tbxTJUdiiS8kqfN3SUjS8qszIVvLTjvfdKbgZPpQNh7e3pGMjrSCSy05obrDAERzXyVssJWIeyRqaiJ1nFuHW5hNWzTz1C8c6cx9fvocQTJHLIlx9AStJO6xwClcOq2iWXm6IncWmwElpiqLWMPPt0fVFZl7+07ukSNc3laW/Z0+c0q3BMzGScrJhUAIvNmlNjjiqaLc8KYK2bK/UHDtTjV0HZ8WdNapaU+oXBmo9UAosRXvrRX9iIz6stDFb9cS+/vG7dLDW5wj+FTwGxvn7uTk8qLOhiwS13JlqLSyziV0klM25NYNV/TjzD5DdPf3b58mf1nx9/6vPjx+vXXfn8qd+sW/f55c9B365c/rwiWk8ErCkp1ZNXdoRisLZ89rtPnyKaxj+7TKQtW8iBz8kXV8jhy0Qjz9YnZS85XgGt+icKFqXFXF1CK31Dlxms+isy2fLpFfrFF+TKFeL78iny2yvy7wAWcf/vL744TkJfyN4DK02zpnx+E4yVHcAc1rrPnvr0t+TKZTo8HAJ9+rL+gPSs130YYQ0fWPfZcQLlvkrM1hMFS7wpzlSxWMWvM5sLq77+KbLlCgn9lgw/Kz91mXy57ukrhHzx9GVy2EuvcNeXJHhF/k0lRmt+sNC9ElOOcLKNsVYl5uBUNRhuKs5bghL8gxrW2vnBWgoxbYa/9WrDh+t/4/X2Hz6+5Uug5w3+rv646/Cnz3q3/J+ncevvKmFVOazaT1AADSAAJgIPflurGqzIpUFsh5pirdbaYD3Wdh5o1T52WHCbhw+DowWf4CQcrhfr69YdgKUDoujA4QMVsJoHrNrf47Kr0XDmrbU4qxI+rVXWxnYyBIiOYIeFyY8GQdNqtQ4Rj3W5NYs9e+DpRyeVw5KCV69ePdK+c2in9Uhbe9sntcfaz+9s31l7TJPc52sbjjDtav/Vxra2IdgGpNrbzhNP47LD8m55hFLqzSeG5GBtI+0HP7EeA8/E/ZVMNEk7OEQkWSJfD3EqDVurjnDXV0dqG5kky6Bg52EbA1i1y22zKpP29nI1FphTnoYlydqHx4j09b+0E99LbaRtGwm+9EdS91I7uXqwqvYIvmTi60Yq/8tLGjlYR65C+RMLa2hX6e0S5zV/WMg/8JaDdYzU9fcfPAaAGuvIv4KKtf+RDFsbyT7g9kfoCo9w7erVf22k3oNgxL6S5YNVQ4+hGVYo5cYNCWcfvO9dwBjrtGZ5Dlprj0nuRms72XmwTfp6iAw3WokGsK5aUbNcLx1stHINYR2sk75ubHuCNaskLHz9xzfffvtr43Ue8zrwdG/Y3oj6FWysOobtWX4JNacRYJ0n0O3VHkEi7Y0UYNWRI+fFru0rEhaORH/z8rfvv/+xJi0MVtUuz1WAdWT468ba2q9C7aGXrMewxNN2sPGq5yrAaguFQl8fDIUOWr/2fGX9oyfUDcUrsRmCKnx06b1LH9d8c6lmgbCqGsGngs/GKny64CB8wbL4a6jFjwYx67sBFxvBG8OK+LXcTmllUhqWeMnPR+/zwiGKiiQHq0HkR0UoY6zhN86fx9RxA/6J1DwUW40p9biIEdGKg4VCARZbgPOwfIH08km5iSFEYh99uwbLEIRVKu3DBKwFzKJZZbDEWNq2bYSUGp1njP1pDRbcjvb7be3HjrVtO6+VnBjyp29LznUodvTVBQscA3xmEFzmUuO1CGshz/SuNljgFpzH52lKTsFgHGAtYJbkioIlUXybYykR/9r0kSEqXs5QotafXpZYXgWJmj9YNfv8KwoWzvMv8ojFtDCpva50JU75N/8X3zSTV1TRP1y6smBV1IFVUkkrPYum6JFXECy+Z+MjlH1lz7+iYJE9LdVzpKU6V7jb+Cys8meTPYy95kh5WHxxsBp2ycv5zjkzWNeuXbvZUnD/u2c2fke+r7620di0e+7mGdldCSzQrMpnrpnPz1rGtxnOhbW7mnFZlG/cvbt6Y3X1DSzduBH1DRZv3L5+DXhBCaxD6caNYutcXhXBYmRno3UR8qG8nP84lplm0dD1PfzGNY1oN2/s27GP7mm5sUOS/63l2j6648Y19gN4Gzf/vINo37fs2bfjwr49LX+m3809TGWaJWl1ixK6nC8HNYUVvLZPu77P/e91WguV77jJzT38tofc3KH9h/v778mt70joh33anRrpxg5Sd2cPadnDf1hgM1xZYgZL1iTtP28RbZ9Mb9FQyw1yQQtev0EvXKN0/3WAdY3cucFCLTfJ9zu06y1/JrdlT8tcu/U3AouG9tAbGyXPf/kuXKf7Wr4jt3do+Hn79n/Sc9+Tm2iz9u1o2UNu7XCBJdsh8ZsmRn6VwtpdKNWSp4XsuP4dODC3b1CNcNdfbsoESv6NyOQOwKqm5M5tMBWevwDE6urvSfD6dL84c5RVCmu23LnVcutOC/z90HJDunDrzl92t7TcufOX6pZbt29dv3HnRvV12PLD7f+4Xn3rZsvuamiV8Fm9e652rUZYsxQrd9e78Xsjgwq5st2i1FgUf6KgumWfbKJYovbqg2Uu1bnvHbev41p1kWq4rUZUMZPVBkvbUVrcbvz8f78vVaXolvKzaFaUVOD/5l6CUWIrfhHpY5UVJGVmvwhj5Qub+7KUwofUxKxVhGU+ezX3D59IVL308iXGaf6WRT+L/3hkKmXpmvN4vZgCXjT/iTWmXq+CqyYZUkN9GPvm22+/vSSxOVtWmmi2F0Oa5iLdIVcodEiDkG/etqT0G0MYkz96/wP8r0Za6f+kgWbzUNshm+foXk93j81n02yVvCSkQErCAi2q+YNc8/J7vKZGWq4XAj8q0Wwh+UXNF+pwB7s9PeRQT+e8D1F6rgPFjPt7AIur0go1VNOi2XrcNpfP5zvq2Ru0ud224Hz2FoM0+EqooskQBCQx0CwcLVuRhipPqMuluWSwVfAF9gpffTEPwX98Hec6lNQY6PoA1uLfGPLESadnXtV57o0htNSrCpi0SmHNU2hdHcdmKNeVmutA+BosFL7z4PldR843tpUaRpGY9vIfVrhtXwrBV4fW1tbWkRJzHcCsr8EiRvDXZq3Fd7mXermm0Ky/eVrCsG/bWfy99ygSZzLCWt20KhzONX9bVOGRPv7DIq/liRfm3PoIZZXls0jXyKYlkQ0bTArLP2+4ooR1NW2YK3jv8xWzXVYZLDIH1l2vLHvvwa03gWo0bXXeBXRNQnOakIf4bBI8hUKJ9U3Gtr9BWDz4sI7ca7rXtX3r9k1eqevu3e3bt3bd3bS9a+umTXe3d+Gmu03btzdt37r13gYs3YClRTTL3U9of35KKBQqOH/Q5KWMwaJpkWAHHKujIwJLOJ0AAALVSURBVPSYjKEJrOGREV53l8suTkZkXndflYKU3N9OPWT7XQ6x+Nat5OGI6nrAOXnYRYKka4PsCpKtJrQAVsjmCtp8PaTf09/tCh7qDPX7iNzZ2SN7Bnyk/5Brr83VAWvdPlcPlO0Nkc6eTg+E+v2d3Z69HtKxNxjsOBSSezo7qW/AHdrrsWm24NHir59ddlhNTVvkYdLzoIvYhuW/3iMPHwwDLDL88MF26f4Dr/chwPK6HsjaX++z4Qf3Hm4lw1t5nYnxQ1gD/f02z4Db5rL1uwc8/R0+gGUL9vTbXAOeF/vdvg7PXpdNtoV6erp9e/t9vh63Dd+feijU3+2GUvdA6JDLJkoH4LuTdIdse4+WfIfz8sJ6sIkFAc9IF/nv7RRhjWzlD0dAi7ZupzlYDxDWlpF7ZHhkw4btJOTzdRSB1X+0u8fjsXXIvs7+AU8HwHK5BKzgUY+vszPUY8AiPf39npDvqK8bYcmuQy5PP7WFuj1HQ50EYHleFLC6g0DddWh+iZNHCcvbRej9e0TtIuS/h0nXXZl0cXK/i2+Vhu8zKPXdJVoX8T6QgyObXLyL1I3wLV3FmqEnFPL43MQGpqbb5TrU0xHydLuOdvZQbHK+vUGtO9jfYZO7iSaaoY90dh4NArd+lzskHyIdh4JuH+mmPZ1HsRm6D/W4SfehjidGs9zB4PBfmzY9dHlCwQdgwO/f6wr6uu5vGnYN/3XTw2DdwwebHtaFPMMjXaBVd4ddngeb7gXr+kfmsprpDbFhGQs9hLpBj/LENdDxYv66bKPEMyt15h7oPPSIAMxH5vpZIyDwtWlkpAm+m0Y2bcClTRuaHoyIrU1iG9QR1UZmSkvAck31hxou0MK8Nr4xPE+oWdbb5X4SogH04JsKBHympqY5RZuE2zVPWWV+Fvduf4TyJGjDEsoKH+VbkzVZkzVZkzVZkzVZkzVZkzVZkzVZkzVZkydK/j/kopgxWu+ltgAAAABJRU5ErkJggg==;" vertex="1" parent="1">
          <mxGeometry x="650" y="420" width="300" height="168" as="geometry" />
        </mxCell>
        <mxCell id="w3wkXEV-EzW7wYtHoRg3-61" value="" style="shape=image;verticalLabelPosition=bottom;labelBackgroundColor=default;verticalAlign=top;aspect=fixed;imageAspect=0;image=data:image/png,iVBORw0KGgoAAAANSUhEUgAAAQEAAADECAMAAACoYGR8AAABiVBMVEWixMj/5Zrdf2rpmZn///+nyMzpmpf39/e3srK3bV1edHfsnZ3/6Z3/66PcgGyKYWFhbnCBeWFzSkuGf33U1Na6qHHu7O0AAADUe2mXlJD13p96kZSbW02OhILil5bMzczFs3yGiouoc3ThnJz85J7Dd2jJeGY6GRSSVEkPAADMiouxeXpXNTWLXFvjzZGBmp6QrLAwPEBvgoVRYWSZuLt1QTijW00gAABRLCTWg3NlOTGjYlc3HRiwbmFnOzVVLyh2SUFGJiTEhYV8VVPLkJB7UVGrm2x8bEJyZEH/86tYTC6Rg1s5LBLZx5Bpe39DVFYiMDN2OS4mEg1AFgqKV0+DSDxYKSEyFA3gjXunb2MzDgWaYVVJJyJeMCTMg3M4FAtWHxVACwArAAA7KSYrHBpFQD9ONzVmR0VULS5FIyW2hIV2Q0NxUVEsGBqbYmGdcHAyJCQiGgBORjiYi2RBOSEaEABEOihjWECOgVzbw4JmVzNGOA7j0Z6gi1UwIwl2ZTdvaFgOGBgVJiiOWfhCAAAUqUlEQVR4nO2di1/ayPbAaV3sxkBk2XXDBm42S0jAJLzkobwUIi+xiFWg3Urr/tq9Irbi7eJWax+/n/3Lf2cCWlDcqhDAW041zEwmM5PvnDnnzJR+qvnuWxfNsAcwdBkTAAI/ff8Ny8+IwI/YtyuBnxCBf5nuf7NiGRMYExgTGBMYExgTGBMYExgTGEECxEB7G0UCg5WRIdA28cRFJejMX7rdmwyFwOVXICyBVqEpSDziO+5hpmCwM9dXBEPSgYvzGFrY4O4TJijHyk82OR5SPE/cN5l4gihjkDS1ikwLGNfKEbypHyiGQwALh7GOgki4GCCCJSJSKs1HKgvlMGEpl0uhcnkzgM2HLQ6uXK5wgXIZcgGHBXJl3rFQ3ub6MJahEDBFSTLaPn9EuBh7HIoEiEiAKz/ZjoXssce/x+zc41jo6fNnnMVRKoYimIX7/cWTBa5YDG89gZL4k0VLHwZzmQDoGlLAK6R5gwAV7KhiuhFC0wZJbrQ/wc9XFmYjkcD9LURgkzNVfp8NPwpzdo7YVgiEYzCuQDn8NFQGAhUOlCZuIeKOm/R6hVwmwD+uVKKOKxAEm8rLl0Kd5ioYuMmSJByzsx09OAIEEalElp4vBriFECIQs8eetwiUY46SIxAKBKLPY7PPF2LFYiAeCjiKW2oR4B6HiJidxyI8H8HAMlnQJcLf5zELb1ooQkHEZIlymMkUifAEqoeaWYQXUupipvs8D7dM8BB2Va8Ex3UsghLUND2DhR53hJ45HvHgDrBy2RFCqZDlWTAYCpQDXOBZIGByBCxKLhTECEfwqg56IxB9btqyx+bDkXIx7IgtODb5UtixwC8txe1cJYBtOxa2HI9jm1wgHCiHNsOBCjwcQQSCZUclErAQ4Ug4EAiEni5de4AKDlhaIfARBPIT6AcsvZJqFqCcqXmbOL+nji/gZu2bZSy2ELJUIsXN2LYjFnpRjCQiS7Endi4cg+kFVV0K2X+3h4jw1gIXqvAtAnwkslTClrgyN7+19RT06LoDJLomb/Tc7aWbDnBAGCsTjqUtx9bzWMkeeVq0FLkwRlSAQKTiiAcwRADmPrxVBgJci4BjybJYIirxErexBQ9Ubu5grj2pRMdHT9LNDqAMEMA2Y45HkWexJbC7sU1sCSNA8+PxRWwpzKFVUHZE4MI3dSDhcGDhOGYPgJUDQ7YV+YPbvJl/ICDOQVoDvsiEsk0Ho3imyw3BLYiXen15RS4TMClBJx8E+xcv8oQFvI7JEceIoAl+uBJXjMeChCMSNPGlONcsherFYtHCx4ux4P1YmbjPx9GtG7mHTRNmX7I7iFC4UqlgRBmcSwncfbAS3ag8utSSI4gFTX+otArah9V5aRUS54Ud9rxlmbCFyMVbXeRSxGF6yoW3CO4PcHohIrIZWpqNKc6OMG2FQyYM40ORIE9gmCVEcOBxOC6+xGFEKBIDn4MFe9GGvseEPPb1mSEs8/OWzmqhF7wjWoyFQlGwKhASPlveDinunoiECdP8guVZKb7AzYfj4H62ypGiI76E/U+oHAgvcvOBcLgHbRhOVIxiwksEICreDnOIALEQKcfA5JwR4KMcEYkVH3OPeb7CbccjfNFhKYU2fy8TACsa4jdDtx/MaOwLQMmfco9C958kYpUIwsGVsZD95TmBCsRi8WKU2zbxlVCsaHcUHVuIQJggkE/iN5/cfjDD2RvGKpVYe96xVNwOBZYiRYhFt7ciC7ArxO7HSIWABVaBneftseI8IgDuJxYPgA4sxTafb0YcC5zddPd0oBnmtYmpBLtlkyMc4MADBcIRggjy8O4YMrlYENyTibA8sjh4BwGeKhIohTAsVMKCULfEm5TC249lRE7JiDaPQxBniS+3O7wLcRYuf3mkh65HhMAQZRAEBnv6fVMZBAGe/3qd4ckACBClEjHCejAAAqHoy1E2MwMggJFkP8501RK1CYD+x0nyqmPHURD1dcD0J0kmvm0CgWiiNMKGYBC+IBAfYRUYDIEb/WXCoOWMAKGiAIERliaB739UUf7173+r2XzP8rP6/77gt1/U7qFHAQIPflZRHvz4m6rt9yoKgR+n1ZSdHVWb71GkpiWkcRUl5VSz9V7F2iIwoZ4gApOjKwMgIBhTtJrt9yjqE6D3SbJG4+p10KOoTwDfIcnq6AIYBAErSYrfNIEJYfbPEV4EgyCAS6O8CAZCwPr1RYAcs5KYnFSyV1Vr1lF+J1sfvQ5vAASuMUZBkiQnfV4Rf0W3nprseF6stz+E1+WeX39iIAS6Cd4xy5Pyy6QsWSfoCZrG6SSNizTNslCLZfEJmqVRAkaIH7xGjykF6CIIykePMhwCcrUqd+R3WKEqik5cdAq7u4ss/KnWjLh1d9dJG6WKKO7uglo0CUCFXUFI7CbEughpqdehD4UA/ZIkX7ZrgTybSOwLYgq3Gq3VpMja2ZrMJuTEXnJffrwnCyljUmwRwI1W/CBVteJVqxNq43Whx8EMhwD6Dkl7gSzh+IHRigiwy3YpWWNrLC1ZN4yvqoK4W7OyKbvxjIAk46K0I+DTVqcI6Z4D7qEQwOskedCmA5NyQhCWU6LEGl9breyOiAiwkpxIslX5FWvddYpsVAYCVUGgU0522TntFHZAB1LTrFG+spvryXDsAA5GrD2PfIGRpo27y3VIpthX8IdOsaK062SdkiQLyFVMwNzDJ2uUjCxrNO5YrSIYidSd1IEJ5Nk7PFkzHsCVTwgg0R8lh9J0q/CsGipwOpOwApT0tdztP0gXAjT9JYj9WuP9cMi3Ebr4yor3ZwgXCUxOCIlEzci2skD5ldCMxTqDNVxOdQZuqgW+3d8Qx/vV4WUdEPZZ+rUTV6ITQaZxGaITGRYhStOygBIQp0yIElJUVoaoZKJVdYIWbumaUPc43UrSZyWocEL1w5XLBJL7SaFqlRdx+ZWwu5wQJNkoVWu4VUpVWWNKssrS8q5ilVB0UkvVxJQVT1mnJWOKTSTqt5oZHKk0mH+YV1oSFlHIt9s0BHW2Lk40TYRa0kUHZiVpQwQPLRvFmiiyUlIS2V05cbCXEBPTsmDd2YPopKkDgii8dspGtpbcEMUoeK9rDhSnO/fL0BgKBUSRFhI0+Hhxzw4XkYZmwWsIVviFrtSh0HUV4HuJPSCwyFqrUVlCVlfai05PL8vCcnSZPZASQpMALteMVSebOEgJ+9PT08ld9nqd4taNDWv7+9D2JHSxO/0aOhMSSWm5+pRVcvsHTitwjwqpxPSLXqO/7tKFwMZe8nU1WUsuV0VnsnrQJCBLB0mjbEzuJerO5I4IBHaSsmCcTlZT+PSGTNf2kovC7jXXLDo6/LOdAHg3IcGKe9MvkxK0LuGCXcmxCdZ5AN0fpFIHuFHs65ufyWUC9CIKP3DnrrPOphYhIhGcAu4UBKNUh8W/KNPGRYhOmkGMIL2q13E5AfZyUbLSzusS+A9J7l8Iiabr7G7q4GVyJ7ljreJsBeVQaOg82BVghYCxMVr7+eLn0iUeaEUnSvDBnkcnE63Sc0d0/lcOgtHZKr32QhVfvuw8NWGrG7TwQj7YTyZgFdRE5wtQQuc+CymrMyUnROMgCSgy+Q+hxuRkx335ulP/RfCL7hyX6zheN1rrQp2u08AUnADkaNj9yLQTXh/soNjrDqC79CMq7ouNPle7M33DW5d+Rj/dZFj7gtGRUSRwdmZ6FodPqrr7GBUCgnym6SgOb3tr+cvQII6S8cl/tlE3l2GdlF7MGzfopi0QXuF2tO84czuv6HNbIDvZV/hEvy3DkE5IZLmzR0GqWmFzBT91cIgHTkhBkIRb66KVlp11GpwCRCcJ2XpW7uxbgDicUzInSTovxISwEVHOCcUEG122Rllp2lpj95flWvLpHkTGRrlqhfB0m61ZDxLJ+emD68afX5VB/J3RpcZRVLzREYRFX0/PCgqBpITDJiGxBztFaQ+2WtGkJE2zrNW54xRTrB1uo3KWtrN9Gt4ACLCL7IUSWiJJqeO0PCGKr+EN8QNEoJakpT27QkCAjCwvG1MpebmdAE3X2D5ZwwEQkMlLwZxgNLavY9wIEaHwYs/uTBiFF2JNmKhBDecuaxfwp8nt6ZQzZbTWnLJdfMpKyymJtdPsHdIBPEUuXzL9F2y5YhdlWkCnATI6bZIn0PEA3kxZRXRY0LyFo0MEWkDlfZIBfIvmP+TLrzWPd0lN4JNtZQqyzr3XnVkFMkmSspqBfY+iOgG8vj/75+2ODwcjg/gWzX5SxdZ7ljMCan1fEboQHrfsvlp99CZnBFT70iqOg+NSsfWepUngN6OKUp2tqtl8r5L4SfV/X/Bg/YHKPfQqmu9+/klN+fXzr6q236M8QAR+Sc+oKOk3qjbfoxz/qhCgdCoK9VDV5nsTPdMicE89UQio2H5vohsAARfzhnGp2H5vMgACujTsC9IjqwQD0QEg4PqmCdj+Iv+yqdh+bzIIAvoGmdar2H5vMggCOtcIL4KBELhn+3iNRaC7IaR+MR0IgeuMg0o3QFGuJqWj3nW887t3/ep5WAQuTLntsJH+xFAn+nt6vQ5+9Tr4vadclBIYaBbZkrMCPcM0b/Y+kCERsDFM+3zr3h1SKwyT/ptxZTKMPr2azmcyM3pXZrVBQUle1yJgS2fSNtvHzEcGnv8I6d5HMiwCxySZaZ9B2/Gnoxl9/pDKpfMPqU8NVyaPMgwzCxdINQno0llXNp0+dh02GmlIn/RhKQyJAPWGJP9un0Ab5ZrJNVw511ubPsMcUjomk33I5Fb0ufzfmcxhXtckcMLo8kdHeV260WhkGZ3t7uqA7Ygkj9p0AN5vZSV/4spRb6mVk/x7yvYm/+Ewn9NTh/lPH6i0ogMren2WWWGycDlWCKzM3F0d0FEf0x1d2nKHMOfUm5nGSebEBgQOjzOfXI3cyRtq9SSTs8FAyVzuY/7h6vu86332U7qRzr8/ft+HYQ/PF1yw47Z3DGyhXS79u7xNBztJiqEoasb1ARaE6x1SdpsLRAfFeiZPZcEeonQ/BtKNAFjeC85K1/FxuZU+jERpRNd0k7rWIDK59yiebm8eRsa8z51Qur5124UAlclmjyE8aevgo7K/t73r3qdu9cJk9Cte01O2Li5fZ6P6uM3oQkDn+pthGjkbdA9BGgU/Nj0DOkfpwTJB7zpkuW3KOOAX6tzTf0KAUI17qPyerfXknZCuBN7qV1wPqdVcLu/KHc6cnJxQGVc6l2NWyRkml1u1ZbKHGf1MLpemsrkjeHn9Q7joPsItV1ZP/S+FnoD6dwNBdx3IZg8bTO4Dk8t/omb++jBD5fIPmTwDOnDIfHjL5Bjq0PXeRa02sh8a4KYVArBS8oeuQ1d6tXFMHR83sncDQHcCbxjGpU+/zWaz+SO9bfXtCXWSz+cO0/kc9eYoe8QcufQ5JmfT6Y+hzrFCAKxG4yj7lmo0cvnsX9kjiNlGd0PcIV0JfLIhi5uj8qtAgElTR+mTfIbKf4Lo9DBPHbtyeX3O9T5PnTR+WGE+wkbmIQOeapbKv6Fcb4/0q8cr6Zm7TOAedYL8rx7sAOxT9LCqs007MIOC9lzu2JZx6TMU07QDOdi16OEDpv4kk3Wt5NI6KAU7MHOHCbR26U1fgGw+KkE5iMPPPBEqVww+8gX3bCAobbPBQtEpHmJ0DwYvyA1iwuvMqS17V6b+XPoeFd81ACNzSjY8GRMYExgTGBMYExgTGBMYExgIAR3DjG6oOBAC+mz22/7+wD3qzX9Gd5UN5BsUDEmO7jIYyLdojkhydJfBQL5J9YYkD0f2xOScgF49sX3I/uBSsf0epUng+x9Ulb/+Urf9nuT/fvpu/P8XjAkgAr8Y1BSvV9Xme5RC898ZabQqim9KzdZ7FXOLgIqCCKjZfm8yJjAmMAgCGp9B1eZ7kwEQ8K+fkl6/ih30JgMgoPWSZGF0l8EgCMyRpPmbJqDxk+ToLoLB+ALvCC+CwRCYG+FFMBhvOMJrYEAErjeSK2+AXLfubfodFQKes5XSrjAeNxSa19bmzgpbn+Y+djwsAhenVVs49aO51WoLHi36UNJmA1Tz+uZ8634l7/YhfdD61zXndZA+aHtRimERMF+YRg+8p1YzVzB4Tn1us9Zt1kwVCv4mAUBSmNMYvD6/77PHXSi4Neu+gltrRqm1gs8PVdduj2BIBAoXwkStYc7j1bgLfsNcwW32aecMboPWMHVOwFwwr2l9c2afv+D3rPtP3Z7PkHKvQ3rOPWXQFG7vbYZDwH9KkqcdJacFH+mZmtOiVeBGBDSGwvoZAY12zeeH/BzcgZlf93shxvBAyuv3gWZ4vQXv7Xefo6EDWrfX45nyzU2B+isE1tZgYtfOdUCz7vataQxrZoP/1APzvu7Xrrs/Q8rj9ht8BbPG7L71UIZEwD9nbrf5Wp9Zq/V/9sBkeqa8nvWCd83s9XkNbjS1hXXv+pR2DvJTnlMzmADQ/UJhyg8pL5gPrxsu655bD2VEfIG/dfH4tRqPxu/x+7Ue+FTK/R5UqkF5LdyAH1QExNpT/bWElyOQ/2bpRsBsNl9QKn9XJeteetekCwE/aQDfq1Wi0SmzcqDsLiC10F64uBVjpsQomlaIcgf1pxuBz/BG6x4/2Gb/OkQlPoPf7TUY/Jo5SGmmfGYN2F8IV1sEUOmcR+tGVtkDbmyU94HdpDsBCFLNU2ZwNoU1TwG976l7zaekwFlBVIJuNQlAoOr3rYEbK7i9ZrfXf7p215bG1QTAP596wEuZYUmAh/avw/x6feCI5vynPt9nt7apA/458FJ+cEtKKXzcMRXoTkCrhaBz3Qzv5UMRypwP3tXjRamCxwOJzx4/7NYU66Cd8vnXQAOAi1I6wofCV0hXS1gofJ7Ten0G0H3v3Pqat+A+NXjNZi9KQdYzVTCgzZr7tFAwrHnX1n1aN+nX+Ao+r+a/ggDEHkqE4UYRhwf26Cj0QIEHpPzoglJnFeE+Cl8Uk4BK75oV+MeY8IoF3bGla2a0EKP3fWSDkj5FxXdO97/IyJySDU3GBMYExgTGBMYExgTGBMYExgTGBM4JDP7brKMiTQI/Tn274m3+/wUPvmEZwL8vGHn5f5Bn9Y3lAm1FAAAAAElFTkSuQmCC;" vertex="1" parent="1">
          <mxGeometry x="1010" y="410" width="257" height="196" as="geometry" />
        </mxCell>
      </root>
    </mxGraphModel>
  </diagram>
</mxfile>
